<svg width="453" height="74" viewBox="0 0 453 74" fill="none" xmlns="http://www.w3.org/2000/svg">
<g filter="url(#filter0_d_74_135)">
<path d="M392 5H449L444 15H392V5Z" fill="white"/>
</g>
<g filter="url(#filter1_d_74_135)">
<path d="M61 5H4L9 15H61V5Z" fill="white"/>
</g>
<path d="M378 16H435L430 26H378V16Z" fill="white"/>
<path d="M362 27H419L414 37H362V27Z" fill="white"/>
<path d="M75 16H18L23 26H75V16Z" fill="white"/>
<path d="M91 27H34L39 37H91V27Z" fill="white"/>
<g filter="url(#filter2_d_74_135)">
<path d="M32 0H420L392 46L226 66L60 46L32 0Z" fill="#FF00EE"/>
</g>
<g filter="url(#filter3_d_74_135)">
<path d="M78.5 25C80.9853 25 83 22.9853 83 20.5C83 18.0147 80.9853 16 78.5 16C76.0147 16 74 18.0147 74 20.5C74 22.9853 76.0147 25 78.5 25Z" fill="#1B1B1B"/>
</g>
<g filter="url(#filter4_d_74_135)">
<path d="M373.5 25C375.985 25 378 22.9853 378 20.5C378 18.0147 375.985 16 373.5 16C371.015 16 369 18.0147 369 20.5C369 22.9853 371.015 25 373.5 25Z" fill="#1B1B1B"/>
</g>
<defs>
<filter id="filter0_d_74_135" x="388" y="5" width="65" height="18" filterUnits="userSpaceOnUse" color-interpolation-filters="sRGB">
<feFlood flood-opacity="0" result="BackgroundImageFix"/>
<feColorMatrix in="SourceAlpha" type="matrix" values="0 0 0 0 0 0 0 0 0 0 0 0 0 0 0 0 0 0 127 0" result="hardAlpha"/>
<feOffset dy="4"/>
<feGaussianBlur stdDeviation="2"/>
<feComposite in2="hardAlpha" operator="out"/>
<feColorMatrix type="matrix" values="0 0 0 0 0 0 0 0 0 0 0 0 0 0 0 0 0 0 0.25 0"/>
<feBlend mode="normal" in2="BackgroundImageFix" result="effect1_dropShadow_74_135"/>
<feBlend mode="normal" in="SourceGraphic" in2="effect1_dropShadow_74_135" result="shape"/>
</filter>
<filter id="filter1_d_74_135" x="0" y="5" width="65" height="18" filterUnits="userSpaceOnUse" color-interpolation-filters="sRGB">
<feFlood flood-opacity="0" result="BackgroundImageFix"/>
<feColorMatrix in="SourceAlpha" type="matrix" values="0 0 0 0 0 0 0 0 0 0 0 0 0 0 0 0 0 0 127 0" result="hardAlpha"/>
<feOffset dy="4"/>
<feGaussianBlur stdDeviation="2"/>
<feComposite in2="hardAlpha" operator="out"/>
<feColorMatrix type="matrix" values="0 0 0 0 0 0 0 0 0 0 0 0 0 0 0 0 0 0 0.25 0"/>
<feBlend mode="normal" in2="BackgroundImageFix" result="effect1_dropShadow_74_135"/>
<feBlend mode="normal" in="SourceGraphic" in2="effect1_dropShadow_74_135" result="shape"/>
</filter>
<filter id="filter2_d_74_135" x="28" y="0" width="396" height="74" filterUnits="userSpaceOnUse" color-interpolation-filters="sRGB">
<feFlood flood-opacity="0" result="BackgroundImageFix"/>
<feColorMatrix in="SourceAlpha" type="matrix" values="0 0 0 0 0 0 0 0 0 0 0 0 0 0 0 0 0 0 127 0" result="hardAlpha"/>
<feOffset dy="4"/>
<feGaussianBlur stdDeviation="2"/>
<feComposite in2="hardAlpha" operator="out"/>
<feColorMatrix type="matrix" values="0 0 0 0 0 0 0 0 0 0 0 0 0 0 0 0 0 0 0.25 0"/>
<feBlend mode="normal" in2="BackgroundImageFix" result="effect1_dropShadow_74_135"/>
<feBlend mode="normal" in="SourceGraphic" in2="effect1_dropShadow_74_135" result="shape"/>
</filter>
<filter id="filter3_d_74_135" x="70" y="12" width="17" height="17" filterUnits="userSpaceOnUse" color-interpolation-filters="sRGB">
<feFlood flood-opacity="0" result="BackgroundImageFix"/>
<feColorMatrix in="SourceAlpha" type="matrix" values="0 0 0 0 0 0 0 0 0 0 0 0 0 0 0 0 0 0 127 0" result="hardAlpha"/>
<feOffset/>
<feGaussianBlur stdDeviation="2"/>
<feComposite in2="hardAlpha" operator="out"/>
<feColorMatrix type="matrix" values="0 0 0 0 0 0 0 0 0 0 0 0 0 0 0 0 0 0 0.25 0"/>
<feBlend mode="normal" in2="BackgroundImageFix" result="effect1_dropShadow_74_135"/>
<feBlend mode="normal" in="SourceGraphic" in2="effect1_dropShadow_74_135" result="shape"/>
</filter>
<filter id="filter4_d_74_135" x="365" y="12" width="17" height="17" filterUnits="userSpaceOnUse" color-interpolation-filters="sRGB">
<feFlood flood-opacity="0" result="BackgroundImageFix"/>
<feColorMatrix in="SourceAlpha" type="matrix" values="0 0 0 0 0 0 0 0 0 0 0 0 0 0 0 0 0 0 127 0" result="hardAlpha"/>
<feOffset/>
<feGaussianBlur stdDeviation="2"/>
<feComposite in2="hardAlpha" operator="out"/>
<feColorMatrix type="matrix" values="0 0 0 0 0 0 0 0 0 0 0 0 0 0 0 0 0 0 0.25 0"/>
<feBlend mode="normal" in2="BackgroundImageFix" result="effect1_dropShadow_74_135"/>
<feBlend mode="normal" in="SourceGraphic" in2="effect1_dropShadow_74_135" result="shape"/>
</filter>
</defs>
</svg>
