<svg width="273" height="94" viewBox="0 0 273 94" fill="none" xmlns="http://www.w3.org/2000/svg">
<path d="M14.4627 0.581863L244.419 8.10249C250.261 8.29356 255.361 12.1158 257.183 17.6696L272.303 63.7394C275.169 72.4711 268.932 81.5332 259.753 81.9749L23.5207 93.3437C16.3149 93.6905 10.0393 88.4719 9.06607 81.3236L0.222046 16.3644C-0.939941 7.82958 5.85376 0.300311 14.4627 0.581863Z" fill="url(#paint0_linear_584_2)"/>
<path d="M244.362 9.8407L14.4059 2.32006C6.87302 2.07371 0.928528 8.66182 1.94528 16.1298L10.7893 81.089C11.6409 87.3437 17.132 91.91 23.4371 91.6066L259.669 80.2378C267.701 79.8513 273.158 71.922 270.651 64.2817L255.531 18.2119C253.936 13.3524 249.474 10.0079 244.362 9.8407Z" stroke="white" stroke-opacity="0.2" stroke-width="3.47826"/>
<defs>
<linearGradient id="paint0_linear_584_2" x1="78" y1="0.043457" x2="78" y2="87" gradientUnits="userSpaceOnUse">
<stop stop-color="#F46EF1"/>
<stop offset="1" stop-color="#AB0FA1"/>
</linearGradient>
</defs>
</svg>
