<svg width="158" height="54" viewBox="0 0 158 54" fill="none" xmlns="http://www.w3.org/2000/svg">
<path d="M149.534 0.309583L17.3091 4.63394C13.9499 4.74381 11.0176 6.9416 9.96949 10.135L1.27554 36.6252C-0.372239 41.6459 3.21398 46.8566 8.49209 47.1106L144.326 53.6476C148.469 53.847 152.077 50.8463 152.637 46.7361L157.722 9.38453C158.39 4.47702 154.484 0.147691 149.534 0.309583Z" fill="url(#paint0_linear_584_67)"/>
<path d="M17.3418 5.63341L149.567 1.30905C153.898 1.16739 157.316 4.95556 156.731 9.24963L151.646 46.6012C151.156 50.1976 147.999 52.8232 144.374 52.6488L8.54016 46.1117C3.92182 45.8895 0.783872 41.3301 2.22568 36.937L10.9196 10.4468C11.8367 7.65261 14.4025 5.72954 17.3418 5.63341Z" stroke="white" stroke-opacity="0.2" stroke-width="2"/>
<defs>
<linearGradient id="paint0_linear_584_67" x1="113" y1="0" x2="113" y2="50" gradientUnits="userSpaceOnUse">
<stop stop-color="#F46EF1"/>
<stop offset="1" stop-color="#AB0FA1"/>
</linearGradient>
</defs>
</svg>
